#include <stdint.h>
const uint8_t midifile[] = {
0x4d,0x54,0x68,0x64,0x00,0x00,0x00,0x06,0x00,0x01,0x00,0x02,0x01,0x80,0x4d,0x54,
0x72,0x6b,0x00,0x00,0x00,0x13,0x00,0xff,0x58,0x04,0x04,0x02,0x18,0x08,0x00,0xff,
0x51,0x03,0x07,0xa1,0x20,0x00,0xff,0x2f,0x00,0x4d,0x54,0x72,0x6b,0x00,0x00,0x15,
0x14,0x00,0xff,0x03,0x0c,0x38,0x2d,0x42,0x69,0x74,0x20,0x53,0x71,0x75,0x61,0x72,
0x65,0x00,0xc0,0x50,0x00,0x90,0x3e,0x32,0x48,0x80,0x3e,0x00,0x18,0x90,0x3e,0x32,
0x48,0x80,0x3e,0x00,0x18,0x90,0x4a,0x32,0x48,0x80,0x4a,0x00,0x78,0x90,0x45,0x32,
0x48,0x80,0x45,0x00,0x81,0x58,0x90,0x44,0x32,0x48,0x80,0x44,0x00,0x78,0x90,0x43,
0x32,0x48,0x80,0x43,0x00,0x78,0x90,0x41,0x32,0x48,0x80,0x41,0x00,0x78,0x90,0x3e,
0x32,0x48,0x80,0x3e,0x00,0x18,0x90,0x41,0x32,0x48,0x80,0x41,0x00,0x18,0x90,0x43,
0x32,0x48,0x80,0x43,0x00,0x18,0x90,0x3c,0x32,0x48,0x80,0x3c,0x00,0x18,0x90,0x3c,
0x32,0x48,0x80,0x3c,0x00,0x18,0x90,0x4a,0x32,0x48,0x80,0x4a,0x00,0x78,0x90,0x45,
0x32,0x48,0x80,0x45,0x00,0x81,0x58,0x90,0x44,0x32,0x48,0x80,0x44,0x00,0x78,0x90,
0x43,0x32,0x48,0x80,0x43,0x00,0x78,0x90,0x41,0x32,0x48,0x80,0x41,0x00,0x78,0x90,
0x3e,0x32,0x48,0x80,0x3e,0x00,0x18,0x90,0x41,0x32,0x48,0x80,0x41,0x00,0x18,0x90,
0x43,0x32,0x48,0x80,0x43,0x00,0x18,0x90,0x3b,0x32,0x48,0x80,0x3b,0x00,0x18,0x90,
0x3b,0x32,0x48,0x80,0x3b,0x00,0x18,0x90,0x4a,0x32,0x48,0x80,0x4a,0x00,0x78,0x90,
0x45,0x32,0x48,0x80,0x45,0x00,0x81,0x58,0x90,0x44,0x32,0x48,0x80,0x44,0x00,0x78,
0x90,0x43,0x32,0x48,0x80,0x43,0x00,0x78,0x90,0x41,0x32,0x48,0x80,0x41,0x00,0x78,
0x90,0x3e,0x32,0x48,0x80,0x3e,0x00,0x18,0x90,0x41,0x32,0x48,0x80,0x41,0x00,0x18,
0x90,0x43,0x32,0x48,0x80,0x43,0x00,0x18,0x90,0x3a,0x32,0x48,0x80,0x3a,0x00,0x18,
0x90,0x3a,0x32,0x48,0x80,0x3a,0x00,0x18,0x90,0x4a,0x32,0x48,0x80,0x4a,0x00,0x78,
0x90,0x45,0x32,0x48,0x80,0x45,0x00,0x81,0x58,0x90,0x44,0x32,0x48,0x80,0x44,0x00,
0x78,0x90,0x43,0x32,0x48,0x80,0x43,0x00,0x78,0x90,0x41,0x32,0x48,0x80,0x41,0x00,
0x81,0x58,0x90,0x41,0x32,0x48,0x80,0x41,0x00,0x18,0x90,0x43,0x32,0x48,0x80,0x43,
0x00,0x18,0x90,0x26,0x32,0x00,0x90,0x3e,0x32,0x48,0x80,0x3e,0x00,0x00,0x80,0x26,
0x00,0x18,0x90,0x3e,0x32,0x48,0x80,0x3e,0x00,0x18,0x90,0x26,0x32,0x00,0x90,0x4a,
0x32,0x48,0x80,0x4a,0x00,0x00,0x80,0x26,0x00,0x78,0x90,0x26,0x32,0x00,0x90,0x45,
0x32,0x48,0x80,0x45,0x00,0x00,0x80,0x26,0x00,0x18,0x90,0x26,0x32,0x48,0x80,0x26,
0x00,0x78,0x90,0x44,0x32,0x00,0x90,0x26,0x32,0x48,0x80,0x44,0x00,0x00,0x80,0x26,
0x00,0x78,0x90,0x43,0x32,0x00,0x90,0x26,0x32,0x48,0x80,0x26,0x00,0x00,0x80,0x43,
0x00,0x78,0x90,0x41,0x32,0x00,0x90,0x26,0x32,0x48,0x80,0x26,0x00,0x00,0x80,0x41,
0x00,0x18,0x90,0x26,0x32,0x48,0x80,0x26,0x00,0x18,0x90,0x26,0x32,0x00,0x90,0x3e,
0x32,0x48,0x80,0x3e,0x00,0x00,0x80,0x26,0x00,0x18,0x90,0x41,0x32,0x00,0x90,0x26,
0x32,0x48,0x80,0x26,0x00,0x00,0x80,0x41,0x00,0x18,0x90,0x43,0x32,0x48,0x80,0x43,
0x00,0x18,0x90,0x24,0x32,0x00,0x90,0x3c,0x32,0x48,0x80,0x24,0x00,0x00,0x80,0x3c,
0x00,0x18,0x90,0x3c,0x32,0x48,0x80,0x3c,0x00,0x18,0x90,0x24,0x32,0x00,0x90,0x4a,
0x32,0x48,0x80,0x4a,0x00,0x00,0x80,0x24,0x00,0x78,0x90,0x45,0x32,0x00,0x90,0x24,
0x32,0x48,0x80,0x45,0x00,0x00,0x80,0x24,0x00,0x18,0x90,0x24,0x32,0x48,0x80,0x24,
0x00,0x78,0x90,0x44,0x32,0x00,0x90,0x24,0x32,0x48,0x80,0x24,0x00,0x00,0x80,0x44,
0x00,0x78,0x90,0x24,0x32,0x00,0x90,0x43,0x32,0x48,0x80,0x43,0x00,0x00,0x80,0x24,
0x00,0x78,0x90,0x24,0x32,0x00,0x90,0x41,0x32,0x48,0x80,0x41,0x00,0x00,0x80,0x24,
0x00,0x18,0x90,0x24,0x32,0x48,0x80,0x24,0x00,0x18,0x90,0x24,0x32,0x00,0x90,0x3e,
0x32,0x48,0x80,0x24,0x00,0x00,0x80,0x3e,0x00,0x18,0x90,0x41,0x32,0x00,0x90,0x24,
0x32,0x48,0x80,0x24,0x00,0x00,0x80,0x41,0x00,0x18,0x90,0x43,0x32,0x48,0x80,0x43,
0x00,0x18,0x90,0x3b,0x32,0x00,0x90,0x22,0x32,0x48,0x80,0x3b,0x00,0x00,0x80,0x22,
0x00,0x18,0x90,0x3b,0x32,0x48,0x80,0x3b,0x00,0x18,0x90,0x22,0x32,0x00,0x90,0x4a,
0x32,0x48,0x80,0x4a,0x00,0x00,0x80,0x22,0x00,0x78,0x90,0x22,0x32,0x00,0x90,0x45,
0x32,0x48,0x80,0x45,0x00,0x00,0x80,0x22,0x00,0x18,0x90,0x22,0x32,0x48,0x80,0x22,
0x00,0x78,0x90,0x22,0x32,0x00,0x90,0x44,0x32,0x48,0x80,0x44,0x00,0x00,0x80,0x22,
0x00,0x78,0x90,0x22,0x32,0x00,0x90,0x43,0x32,0x48,0x80,0x22,0x00,0x00,0x80,0x43,
0x00,0x78,0x90,0x22,0x32,0x00,0x90,0x41,0x32,0x48,0x80,0x41,0x00,0x00,0x80,0x22,
0x00,0x18,0x90,0x22,0x32,0x48,0x80,0x22,0x00,0x18,0x90,0x3e,0x32,0x00,0x90,0x22,
0x32,0x48,0x80,0x22,0x00,0x00,0x80,0x3e,0x00,0x18,0x90,0x22,0x32,0x00,0x90,0x41,
0x32,0x48,0x80,0x22,0x00,0x00,0x80,0x41,0x00,0x18,0x90,0x43,0x32,0x48,0x80,0x43,
0x00,0x18,0x90,0x22,0x32,0x00,0x90,0x3a,0x32,0x48,0x80,0x3a,0x00,0x00,0x80,0x22,
0x00,0x18,0x90,0x3a,0x32,0x48,0x80,0x3a,0x00,0x18,0x90,0x4a,0x32,0x00,0x90,0x22,
0x32,0x48,0x80,0x22,0x00,0x00,0x80,0x4a,0x00,0x78,0x90,0x45,0x32,0x00,0x90,0x22,
0x32,0x48,0x80,0x22,0x00,0x00,0x80,0x45,0x00,0x18,0x90,0x22,0x32,0x48,0x80,0x22,
0x00,0x78,0x90,0x24,0x32,0x00,0x90,0x44,0x32,0x48,0x80,0x24,0x00,0x00,0x80,0x44,
0x00,0x78,0x90,0x24,0x32,0x00,0x90,0x43,0x32,0x48,0x80,0x43,0x00,0x00,0x80,0x24,
0x00,0x78,0x90,0x41,0x32,0x00,0x90,0x24,0x32,0x48,0x80,0x24,0x00,0x00,0x80,0x41,
0x00,0x18,0x90,0x24,0x32,0x48,0x80,0x24,0x00,0x18,0x90,0x3e,0x32,0x00,0x90,0x24,
0x32,0x48,0x80,0x24,0x00,0x00,0x80,0x3e,0x00,0x18,0x90,0x41,0x32,0x00,0x90,0x24,
0x32,0x48,0x80,0x41,0x00,0x00,0x80,0x24,0x00,0x18,0x90,0x43,0x32,0x48,0x80,0x43,
0x00,0x18,0x90,0x26,0x32,0x00,0x90,0x41,0x32,0x48,0x80,0x41,0x00,0x00,0x80,0x26,
0x00,0x78,0x90,0x26,0x32,0x00,0x90,0x41,0x32,0x48,0x80,0x26,0x00,0x00,0x80,0x41,
0x00,0x18,0x90,0x41,0x32,0x00,0x90,0x26,0x32,0x48,0x80,0x26,0x00,0x00,0x80,0x41,
0x00,0x18,0x90,0x26,0x32,0x48,0x80,0x26,0x00,0x18,0x90,0x41,0x32,0x48,0x80,0x41,
0x00,0x18,0x90,0x26,0x32,0x48,0x80,0x26,0x00,0x18,0x90,0x41,0x32,0x00,0x90,0x26,
0x32,0x48,0x80,0x26,0x00,0x00,0x80,0x41,0x00,0x18,0x90,0x26,0x32,0x48,0x80,0x26,
0x00,0x18,0x90,0x3e,0x32,0x48,0x80,0x3e,0x00,0x18,0x90,0x26,0x32,0x48,0x80,0x26,
0x00,0x18,0x90,0x26,0x32,0x00,0x90,0x3e,0x32,0x48,0x80,0x3e,0x00,0x00,0x80,0x26,
0x00,0x18,0x90,0x26,0x32,0x48,0x80,0x26,0x00,0x18,0x90,0x26,0x32,0x48,0x80,0x26,
0x00,0x18,0x90,0x26,0x32,0x48,0x80,0x26,0x00,0x78,0x90,0x24,0x32,0x00,0x90,0x41,
0x32,0x48,0x80,0x41,0x00,0x00,0x80,0x24,0x00,0x78,0x90,0x24,0x32,0x00,0x90,0x41,
0x32,0x48,0x80,0x41,0x00,0x00,0x80,0x24,0x00,0x18,0x90,0x41,0x32,0x00,0x90,0x24,
0x32,0x48,0x80,0x41,0x00,0x00,0x80,0x24,0x00,0x18,0x90,0x24,0x32,0x48,0x80,0x24,
0x00,0x18,0x90,0x43,0x32,0x48,0x80,0x43,0x00,0x18,0x90,0x24,0x32,0x48,0x80,0x24,
0x00,0x18,0x90,0x24,0x32,0x00,0x90,0x44,0x32,0x48,0x80,0x44,0x00,0x00,0x80,0x24,
0x00,0x18,0x90,0x24,0x32,0x48,0x80,0x24,0x00,0x18,0x90,0x43,0x32,0x00,0x90,0x44,
0x32,0x00,0x90,0x43,0x32,0x48,0x80,0x43,0x00,0x00,0x80,0x44,0x00,0x00,0x80,0x43,
0x00,0x18,0x90,0x24,0x32,0x00,0x90,0x41,0x32,0x48,0x80,0x24,0x00,0x00,0x80,0x41,
0x00,0x18,0x90,0x3e,0x32,0x00,0x90,0x24,0x32,0x48,0x80,0x24,0x00,0x00,0x80,0x3e,
0x00,0x18,0x90,0x24,0x32,0x00,0x90,0x41,0x32,0x48,0x80,0x24,0x00,0x00,0x80,0x41,
0x00,0x18,0x90,0x43,0x32,0x00,0x90,0x24,0x32,0x48,0x80,0x24,0x00,0x00,0x80,0x43,
0x00,0x18,0x90,0x24,0x32,0x48,0x80,0x24,0x00,0x78,0x90,0x23,0x32,0x00,0x90,0x41,
0x32,0x48,0x80,0x23,0x00,0x00,0x80,0x41,0x00,0x78,0x90,0x23,0x32,0x00,0x90,0x41,
0x32,0x48,0x80,0x41,0x00,0x00,0x80,0x23,0x00,0x18,0x90,0x41,0x32,0x00,0x90,0x23,
0x32,0x48,0x80,0x23,0x00,0x00,0x80,0x41,0x00,0x18,0x90,0x23,0x32,0x48,0x80,0x23,
0x00,0x18,0x90,0x43,0x32,0x48,0x80,0x43,0x00,0x18,0x90,0x23,0x32,0x48,0x80,0x23,
0x00,0x18,0x90,0x44,0x32,0x00,0x90,0x23,0x32,0x48,0x80,0x23,0x00,0x00,0x80,0x44,
0x00,0x18,0x90,0x23,0x32,0x48,0x80,0x23,0x00,0x18,0x90,0x45,0x32,0x48,0x80,0x45,
0x00,0x18,0x90,0x23,0x32,0x48,0x80,0x23,0x00,0x18,0x90,0x48,0x32,0x00,0x90,0x23,
0x32,0x48,0x80,0x23,0x00,0x00,0x80,0x48,0x00,0x18,0x90,0x23,0x32,0x48,0x80,0x23,
0x00,0x18,0x90,0x23,0x32,0x00,0x90,0x45,0x32,0x48,0x80,0x45,0x00,0x00,0x80,0x23,
0x00,0x18,0x90,0x23,0x32,0x48,0x80,0x23,0x00,0x78,0x90,0x22,0x32,0x00,0x90,0x4a,
0x32,0x48,0x80,0x4a,0x00,0x00,0x80,0x22,0x00,0x78,0x90,0x4a,0x32,0x00,0x90,0x22,
0x32,0x48,0x80,0x4a,0x00,0x00,0x80,0x22,0x00,0x18,0x90,0x22,0x32,0x48,0x80,0x22,
0x00,0x18,0x90,0x4a,0x32,0x00,0x90,0x22,0x32,0x48,0x80,0x22,0x00,0x00,0x80,0x4a,
0x00,0x18,0x90,0x45,0x32,0x48,0x80,0x45,0x00,0x18,0x90,0x22,0x32,0x00,0x90,0x4a,
0x32,0x48,0x80,0x4a,0x00,0x00,0x80,0x22,0x00,0x18,0x90,0x22,0x32,0x00,0x90,0x48,
0x32,0x48,0x80,0x48,0x00,0x00,0x80,0x22,0x00,0x18,0x90,0x24,0x32,0x48,0x80,0x24,
0x00,0x78,0x90,0x24,0x32,0x48,0x80,0x24,0x00,0x18,0x90,0x24,0x32,0x48,0x80,0x24,
0x00,0x18,0x90,0x24,0x32,0x48,0x80,0x24,0x00,0x18,0x90,0x24,0x32,0x48,0x80,0x24,
0x00,0x18,0x90,0x24,0x32,0x48,0x80,0x24,0x00,0x78,0x90,0x26,0x32,0x00,0x90,0x45,
0x32,0x00,0x90,0x41,0x32,0x48,0x80,0x45,0x00,0x00,0x80,0x26,0x00,0x00,0x80,0x41,
0x00,0x78,0x90,0x26,0x32,0x00,0x90,0x45,0x32,0x00,0x90,0x41,0x32,0x48,0x80,0x45,
0x00,0x00,0x80,0x26,0x00,0x00,0x80,0x41,0x00,0x18,0x90,0x26,0x32,0x00,0x90,0x45,
0x32,0x00,0x90,0x41,0x32,0x48,0x80,0x41,0x00,0x00,0x80,0x45,0x00,0x00,0x80,0x26,
0x00,0x18,0x90,0x26,0x32,0x48,0x80,0x26,0x00,0x18,0x90,0x41,0x32,0x00,0x90,0x45,
0x32,0x48,0x80,0x41,0x00,0x00,0x80,0x45,0x00,0x18,0x90,0x26,0x32,0x48,0x80,0x26,
0x00,0x18,0x90,0x26,0x32,0x00,0x90,0x41,0x32,0x00,0x90,0x45,0x32,0x48,0x80,0x45,
0x00,0x00,0x80,0x41,0x00,0x00,0x80,0x26,0x00,0x18,0x90,0x26,0x32,0x48,0x80,0x26,
0x00,0x18,0x90,0x3e,0x32,0x00,0x90,0x43,0x32,0x48,0x80,0x43,0x00,0x00,0x80,0x3e,
0x00,0x18,0x90,0x26,0x32,0x48,0x80,0x26,0x00,0x18,0x90,0x43,0x32,0x00,0x90,0x3e,
0x32,0x00,0x90,0x26,0x32,0x48,0x80,0x3e,0x00,0x00,0x80,0x26,0x00,0x00,0x80,0x43,
0x00,0x18,0x90,0x26,0x32,0x48,0x80,0x26,0x00,0x18,0x90,0x26,0x32,0x48,0x80,0x26,
0x00,0x18,0x90,0x26,0x32,0x48,0x80,0x26,0x00,0x18,0x90,0x26,0x32,0x48,0x80,0x26,
0x00,0x18,0x90,0x45,0x32,0x00,0x90,0x41,0x32,0x00,0x90,0x24,0x32,0x48,0x80,0x24,
0x00,0x00,0x80,0x41,0x00,0x00,0x80,0x45,0x00,0x78,0x90,0x24,0x32,0x00,0x90,0x41,
0x32,0x00,0x90,0x45,0x32,0x48,0x80,0x24,0x00,0x00,0x80,0x45,0x00,0x00,0x80,0x41,
0x00,0x18,0x90,0x41,0x32,0x00,0x90,0x24,0x32,0x00,0x90,0x45,0x32,0x48,0x80,0x45,
0x00,0x00,0x80,0x41,0x00,0x00,0x80,0x24,0x00,0x18,0x90,0x24,0x32,0x48,0x80,0x24,
0x00,0x18,0x90,0x41,0x32,0x00,0x90,0x45,0x32,0x48,0x80,0x45,0x00,0x00,0x80,0x41,
0x00,0x18,0x90,0x24,0x32,0x48,0x80,0x24,0x00,0x18,0x90,0x3e,0x32,0x00,0x90,0x24,
0x32,0x00,0x90,0x43,0x32,0x48,0x80,0x3e,0x00,0x00,0x80,0x24,0x00,0x00,0x80,0x43,
0x00,0x18,0x90,0x24,0x32,0x48,0x80,0x24,0x00,0x18,0x90,0x41,0x32,0x00,0x90,0x45,
0x32,0x48,0x80,0x45,0x00,0x00,0x80,0x41,0x00,0x18,0x90,0x24,0x32,0x48,0x80,0x24,
0x00,0x18,0x90,0x24,0x32,0x00,0x90,0x4a,0x32,0x00,0x90,0x45,0x32,0x48,0x80,0x45,
0x00,0x00,0x80,0x4a,0x00,0x00,0x80,0x24,0x00,0x18,0x90,0x24,0x32,0x48,0x80,0x24,
0x00,0x18,0x90,0x45,0x32,0x00,0x90,0x41,0x32,0x00,0x90,0x24,0x32,0x48,0x80,0x45,
0x00,0x00,0x80,0x24,0x00,0x00,0x80,0x41,0x00,0x18,0x90,0x43,0x32,0x00,0x90,0x3e,
0x32,0x00,0x90,0x24,0x32,0x48,0x80,0x24,0x00,0x00,0x80,0x43,0x00,0x00,0x80,0x3e,
0x00,0x18,0x90,0x24,0x32,0x48,0x80,0x24,0x00,0x18,0x90,0x23,0x32,0x00,0x90,0x4a,
0x32,0x48,0x80,0x4a,0x00,0x00,0x80,0x23,0x00,0x18,0x90,0x3e,0x32,0x48,0x80,0x3e,
0x00,0x18,0x90,0x23,0x32,0x00,0x90,0x45,0x32,0x48,0x80,0x23,0x00,0x00,0x80,0x45,
0x00,0x18,0x90,0x23,0x32,0x00,0x90,0x39,0x32,0x48,0x80,0x39,0x00,0x00,0x80,0x23,
0x00,0x18,0x90,0x23,0x32,0x00,0x90,0x43,0x32,0x48,0x80,0x43,0x00,0x00,0x80,0x23,
0x00,0x18,0x90,0x37,0x32,0x48,0x80,0x37,0x00,0x18,0x90,0x41,0x32,0x00,0x90,0x23,
0x32,0x48,0x80,0x23,0x00,0x00,0x80,0x41,0x00,0x18,0x90,0x35,0x32,0x00,0x90,0x23,
0x32,0x48,0x80,0x23,0x00,0x00,0x80,0x35,0x00,0x18,0x90,0x23,0x32,0x00,0x90,0x48,
0x32,0x48,0x80,0x23,0x00,0x00,0x80,0x48,0x00,0x18,0x90,0x3c,0x32,0x48,0x80,0x3c,
0x00,0x18,0x90,0x23,0x32,0x00,0x90,0x41,0x32,0x48,0x80,0x41,0x00,0x00,0x80,0x23,
0x00,0x18,0x90,0x35,0x32,0x00,0x90,0x23,0x32,0x48,0x80,0x23,0x00,0x00,0x80,0x35,
0x00,0x18,0x90,0x23,0x32,0x00,0x90,0x40,0x32,0x48,0x80,0x23,0x00,0x00,0x80,0x40,
0x00,0x18,0x90,0x23,0x32,0x00,0x90,0x34,0x32,0x48,0x80,0x34,0x00,0x00,0x80,0x23,
0x00,0x18,0x90,0x3e,0x32,0x00,0x90,0x23,0x32,0x48,0x80,0x3e,0x00,0x00,0x80,0x23,
0x00,0x18,0x90,0x23,0x32,0x00,0x90,0x32,0x32,0x48,0x80,0x32,0x00,0x00,0x80,0x23,
0x00,0x18,0x90,0x3a,0x32,0x00,0x90,0x22,0x32,0x48,0x80,0x22,0x00,0x00,0x80,0x3a,
0x00,0x18,0x90,0x2e,0x32,0x48,0x80,0x2e,0x00,0x18,0x90,0x3c,0x32,0x00,0x90,0x22,
0x32,0x48,0x80,0x22,0x00,0x00,0x80,0x3c,0x00,0x18,0x90,0x22,0x32,0x00,0x90,0x3d,
0x32,0x48,0x80,0x3d,0x00,0x00,0x80,0x22,0x00,0x18,0x90,0x22,0x32,0x00,0x90,0x3e,
0x32,0x48,0x80,0x22,0x00,0x00,0x80,0x3e,0x00,0x18,0x90,0x41,0x32,0x48,0x80,0x41,
0x00,0x18,0x90,0x35,0x32,0x00,0x90,0x22,0x32,0x48,0x80,0x22,0x00,0x00,0x80,0x35,
0x00,0x18,0x90,0x48,0x32,0x00,0x90,0x34,0x32,0x48,0x80,0x48,0x00,0x00,0x80,0x34,
0x00,0x18,0x90,0x24,0x32,0x48,0x80,0x24,0x00,0x78,0x90,0x24,0x32,0x48,0x80,0x24,
0x00,0x18,0x90,0x24,0x32,0x48,0x80,0x24,0x00,0x78,0x90,0x24,0x32,0x48,0x80,0x24,
0x00,0x18,0x90,0x24,0x32,0x48,0x80,0x24,0x00,0x18,0x90,0x24,0x32,0x48,0x80,0x24,
0x00,0x18,0x90,0x22,0x32,0x48,0x80,0x22,0x00,0x18,0x90,0x22,0x32,0x48,0x80,0x22,
0x00,0x18,0x90,0x22,0x32,0x48,0x80,0x22,0x00,0x18,0x90,0x22,0x32,0x48,0x80,0x22,
0x00,0x18,0x90,0x22,0x32,0x48,0x80,0x22,0x00,0x18,0x90,0x22,0x32,0x48,0x80,0x22,
0x00,0x18,0x90,0x22,0x32,0x48,0x80,0x22,0x00,0x18,0x90,0x22,0x32,0x48,0x80,0x22,
0x00,0x18,0x90,0x22,0x32,0x00,0x90,0x41,0x32,0x48,0x80,0x22,0x00,0x00,0x80,0x41,
0x00,0x18,0x90,0x3e,0x32,0x00,0x90,0x22,0x32,0x48,0x80,0x3e,0x00,0x00,0x80,0x22,
0x00,0x18,0x90,0x22,0x32,0x00,0x90,0x41,0x32,0x48,0x80,0x41,0x00,0x00,0x80,0x22,
0x00,0x18,0x90,0x22,0x32,0x00,0x90,0x43,0x32,0x48,0x80,0x22,0x00,0x00,0x80,0x43,
0x00,0x18,0x90,0x22,0x32,0x00,0x90,0x44,0x32,0x48,0x80,0x44,0x00,0x00,0x80,0x22,
0x00,0x18,0x90,0x43,0x32,0x00,0x90,0x22,0x32,0x48,0x80,0x43,0x00,0x00,0x80,0x22,
0x00,0x18,0x90,0x41,0x32,0x00,0x90,0x22,0x32,0x48,0x80,0x22,0x00,0x00,0x80,0x41,
0x00,0x18,0x90,0x3e,0x32,0x00,0x90,0x22,0x32,0x48,0x80,0x22,0x00,0x00,0x80,0x3e,
0x00,0x18,0x90,0x44,0x32,0x00,0x90,0x43,0x32,0x00,0x90,0x24,0x32,0x48,0x80,0x44,
0x00,0x00,0x80,0x24,0x00,0x00,0x80,0x43,0x00,0x18,0x90,0x3e,0x32,0x00,0x90,0x41,
0x32,0x00,0x90,0x24,0x32,0x48,0x80,0x3e,0x00,0x00,0x80,0x41,0x00,0x00,0x80,0x24,
0x00,0x18,0x90,0x41,0x32,0x00,0x90,0x24,0x32,0x48,0x80,0x41,0x00,0x00,0x80,0x24,
0x00,0x18,0x90,0x24,0x32,0x48,0x80,0x24,0x00,0x18,0x90,0x24,0x32,0x00,0x90,0x43,
0x32,0x48,0x80,0x43,0x00,0x00,0x80,0x24,0x00,0x18,0x90,0x24,0x32,0x48,0x80,0x24,
0x00,0x18,0x90,0x24,0x32,0x48,0x80,0x24,0x00,0x18,0x90,0x24,0x32,0x48,0x80,0x24,
0x00,0x18,0x90,0x24,0x32,0x48,0x80,0x24,0x00,0x18,0x90,0x24,0x32,0x48,0x80,0x24,
0x00,0x18,0x90,0x24,0x32,0x48,0x80,0x24,0x00,0x18,0x90,0x24,0x32,0x48,0x80,0x24,
0x00,0x18,0x90,0x24,0x32,0x48,0x80,0x24,0x00,0x18,0x90,0x44,0x32,0x00,0x90,0x24,
0x32,0x48,0x80,0x24,0x00,0x00,0x80,0x44,0x00,0x18,0x90,0x24,0x32,0x48,0x80,0x24,
0x00,0x18,0x90,0x24,0x32,0x00,0x90,0x45,0x32,0x48,0x80,0x24,0x00,0x00,0x80,0x45,
0x00,0x18,0x90,0x26,0x32,0x00,0x90,0x48,0x32,0x48,0x80,0x48,0x00,0x00,0x80,0x26,
0x00,0x18,0x90,0x26,0x32,0x48,0x80,0x26,0x00,0x18,0x90,0x26,0x32,0x00,0x90,0x45,
0x32,0x48,0x80,0x26,0x00,0x00,0x80,0x45,0x00,0x18,0x90,0x26,0x32,0x00,0x90,0x44,
0x32,0x48,0x80,0x26,0x00,0x00,0x80,0x44,0x00,0x18,0x90,0x26,0x32,0x00,0x90,0x43,
0x32,0x48,0x80,0x43,0x00,0x00,0x80,0x26,0x00,0x18,0x90,0x41,0x32,0x00,0x90,0x26,
0x32,0x48,0x80,0x41,0x00,0x00,0x80,0x26,0x00,0x18,0x90,0x26,0x32,0x00,0x90,0x3e,
0x32,0x48,0x80,0x3e,0x00,0x00,0x80,0x26,0x00,0x18,0x90,0x40,0x32,0x00,0x90,0x26,
0x32,0x48,0x80,0x40,0x00,0x00,0x80,0x26,0x00,0x18,0x90,0x41,0x32,0x00,0x90,0x25,
0x32,0x48,0x80,0x25,0x00,0x00,0x80,0x41,0x00,0x18,0x90,0x25,0x32,0x48,0x80,0x25,
0x00,0x18,0x90,0x25,0x32,0x00,0x90,0x43,0x32,0x48,0x80,0x25,0x00,0x00,0x80,0x43,
0x00,0x18,0x90,0x25,0x32,0x48,0x80,0x25,0x00,0x18,0x90,0x45,0x32,0x00,0x90,0x25,
0x32,0x48,0x80,0x25,0x00,0x00,0x80,0x45,0x00,0x18,0x90,0x25,0x32,0x48,0x80,0x25,
0x00,0x18,0x90,0x48,0x32,0x00,0x90,0x25,0x32,0x48,0x80,0x48,0x00,0x00,0x80,0x25,
0x00,0x18,0x90,0x25,0x32,0x48,0x80,0x25,0x00,0x18,0x90,0x24,0x32,0x00,0x90,0x49,
0x32,0x48,0x80,0x49,0x00,0x00,0x80,0x24,0x00,0x18,0x90,0x24,0x32,0x48,0x80,0x24,
0x00,0x18,0x90,0x44,0x32,0x00,0x90,0x24,0x32,0x48,0x80,0x24,0x00,0x00,0x80,0x44,
0x00,0x18,0x90,0x24,0x32,0x48,0x80,0x24,0x00,0x18,0x90,0x44,0x32,0x00,0x90,0x24,
0x32,0x48,0x80,0x44,0x00,0x00,0x80,0x24,0x00,0x18,0x90,0x43,0x32,0x00,0x90,0x24,
0x32,0x48,0x80,0x24,0x00,0x00,0x80,0x43,0x00,0x18,0x90,0x41,0x32,0x00,0x90,0x24,
0x32,0x48,0x80,0x24,0x00,0x00,0x80,0x41,0x00,0x18,0x90,0x43,0x32,0x00,0x90,0x24,
0x32,0x48,0x80,0x43,0x00,0x00,0x80,0x24,0x00,0x18,0x90,0x23,0x32,0x48,0x80,0x23,
0x00,0x18,0x90,0x23,0x32,0x48,0x80,0x23,0x00,0x18,0x90,0x23,0x32,0x48,0x80,0x23,
0x00,0x18,0x90,0x23,0x32,0x48,0x80,0x23,0x00,0x18,0x90,0x23,0x32,0x48,0x80,0x23,
0x00,0x18,0x90,0x23,0x32,0x48,0x80,0x23,0x00,0x18,0x90,0x23,0x32,0x48,0x80,0x23,
0x00,0x18,0x90,0x23,0x32,0x48,0x80,0x23,0x00,0x18,0x90,0x35,0x32,0x00,0x90,0x22,
0x32,0x48,0x80,0x35,0x00,0x00,0x80,0x22,0x00,0x18,0x90,0x22,0x32,0x48,0x80,0x22,
0x00,0x18,0x90,0x22,0x32,0x00,0x90,0x37,0x32,0x48,0x80,0x37,0x00,0x00,0x80,0x22,
0x00,0x18,0x90,0x22,0x32,0x48,0x80,0x22,0x00,0x18,0x90,0x22,0x32,0x00,0x90,0x39,
0x32,0x48,0x80,0x22,0x00,0x00,0x80,0x39,0x00,0x18,0x90,0x22,0x32,0x48,0x80,0x22,
0x00,0x18,0x90,0x22,0x32,0x00,0x90,0x41,0x32,0x48,0x80,0x41,0x00,0x00,0x80,0x22,
0x00,0x18,0x90,0x22,0x32,0x48,0x80,0x22,0x00,0x18,0x90,0x40,0x32,0x00,0x90,0x22,
0x32,0x48,0x80,0x22,0x00,0x00,0x80,0x40,0x00,0x18,0x90,0x22,0x32,0x48,0x80,0x22,
0x00,0x18,0x90,0x22,0x32,0x48,0x80,0x22,0x00,0x18,0x90,0x22,0x32,0x48,0x80,0x22,
0x00,0x18,0x90,0x3e,0x32,0x00,0x90,0x22,0x32,0x48,0x80,0x22,0x00,0x00,0x80,0x3e,
0x00,0x18,0x90,0x22,0x32,0x48,0x80,0x22,0x00,0x18,0x90,0x22,0x32,0x48,0x80,0x22,
0x00,0x18,0x90,0x22,0x32,0x48,0x80,0x22,0x00,0x18,0x90,0x24,0x32,0x00,0x90,0x40,
0x32,0x48,0x80,0x40,0x00,0x00,0x80,0x24,0x00,0x18,0x90,0x24,0x32,0x48,0x80,0x24,
0x00,0x18,0x90,0x24,0x32,0x48,0x80,0x24,0x00,0x18,0x90,0x24,0x32,0x48,0x80,0x24,
0x00,0x18,0x90,0x41,0x32,0x00,0x90,0x24,0x32,0x48,0x80,0x24,0x00,0x00,0x80,0x41,
0x00,0x18,0x90,0x24,0x32,0x48,0x80,0x24,0x00,0x18,0x90,0x24,0x32,0x48,0x80,0x24,
0x00,0x18,0x90,0x24,0x32,0x48,0x80,0x24,0x00,0x18,0x90,0x43,0x32,0x00,0x90,0x24,
0x32,0x48,0x80,0x43,0x00,0x00,0x80,0x24,0x00,0x18,0x90,0x24,0x32,0x48,0x80,0x24,
0x00,0x18,0x90,0x24,0x32,0x48,0x80,0x24,0x00,0x18,0x90,0x24,0x32,0x48,0x80,0x24,
0x00,0x18,0x90,0x24,0x32,0x00,0x90,0x40,0x32,0x48,0x80,0x24,0x00,0x00,0x80,0x40,
0x00,0x18,0x90,0x24,0x32,0x48,0x80,0x24,0x00,0x18,0x90,0x24,0x32,0x48,0x80,0x24,
0x00,0x18,0x90,0x24,0x32,0x48,0x80,0x24,0x00,0x18,0x90,0x26,0x32,0x00,0x90,0x45,
0x32,0x48,0x80,0x26,0x00,0x00,0x80,0x45,0x00,0x18,0x90,0x26,0x32,0x48,0x80,0x26,
0x00,0x18,0x90,0x26,0x32,0x48,0x80,0x26,0x00,0x18,0x90,0x26,0x32,0x48,0x80,0x26,
0x00,0x18,0x90,0x26,0x32,0x48,0x80,0x26,0x00,0x18,0x90,0x26,0x32,0x48,0x80,0x26,
0x00,0x18,0x90,0x26,0x32,0x48,0x80,0x26,0x00,0x18,0x90,0x26,0x32,0x48,0x80,0x26,
0x00,0x18,0x90,0x45,0x32,0x00,0x90,0x26,0x32,0x48,0x80,0x26,0x00,0x00,0x80,0x45,
0x00,0x18,0x90,0x26,0x32,0x00,0x90,0x44,0x32,0x48,0x80,0x44,0x00,0x00,0x80,0x26,
0x00,0x18,0x90,0x26,0x32,0x00,0x90,0x43,0x32,0x48,0x80,0x43,0x00,0x00,0x80,0x26,
0x00,0x18,0x90,0x26,0x32,0x00,0x90,0x42,0x32,0x48,0x80,0x26,0x00,0x00,0x80,0x42,
0x00,0x18,0x90,0x41,0x32,0x00,0x90,0x26,0x32,0x48,0x80,0x26,0x00,0x00,0x80,0x41,
0x00,0x18,0x90,0x26,0x32,0x00,0x90,0x40,0x32,0x48,0x80,0x40,0x00,0x00,0x80,0x26,
0x00,0x18,0x90,0x26,0x32,0x00,0x90,0x3f,0x32,0x48,0x80,0x3f,0x00,0x00,0x80,0x26,
0x00,0x18,0x90,0x3e,0x32,0x00,0x90,0x26,0x32,0x48,0x80,0x26,0x00,0x00,0x80,0x3e,
0x00,0x18,0x90,0x25,0x32,0x00,0x90,0x3d,0x32,0x48,0x80,0x3d,0x00,0x00,0x80,0x25,
0x00,0x18,0x90,0x25,0x32,0x48,0x80,0x25,0x00,0x18,0x90,0x25,0x32,0x48,0x80,0x25,
0x00,0x18,0x90,0x25,0x32,0x48,0x80,0x25,0x00,0x18,0x90,0x25,0x32,0x48,0x80,0x25,
0x00,0x18,0x90,0x25,0x32,0x48,0x80,0x25,0x00,0x18,0x90,0x25,0x32,0x48,0x80,0x25,
0x00,0x18,0x90,0x25,0x32,0x48,0x80,0x25,0x00,0x18,0x90,0x3f,0x32,0x00,0x90,0x27,
0x32,0x48,0x80,0x27,0x00,0x00,0x80,0x3f,0x00,0x18,0x90,0x27,0x32,0x48,0x80,0x27,
0x00,0x18,0x90,0x27,0x32,0x48,0x80,0x27,0x00,0x18,0x90,0x27,0x32,0x48,0x80,0x27,
0x00,0x18,0x90,0x27,0x32,0x48,0x80,0x27,0x00,0x18,0x90,0x27,0x32,0x48,0x80,0x27,
0x00,0x18,0x90,0x27,0x32,0x48,0x80,0x27,0x00,0x18,0x90,0x27,0x32,0x48,0x80,0x27,
0x00,0x18,0x90,0x22,0x32,0x48,0x80,0x22,0x00,0x18,0x90,0x22,0x32,0x48,0x80,0x22,
0x00,0x18,0x90,0x22,0x32,0x48,0x80,0x22,0x00,0x18,0x90,0x22,0x32,0x48,0x80,0x22,
0x00,0x18,0x90,0x22,0x32,0x48,0x80,0x22,0x00,0x18,0x90,0x22,0x32,0x48,0x80,0x22,
0x00,0x18,0x90,0x22,0x32,0x48,0x80,0x22,0x00,0x18,0x90,0x22,0x32,0x48,0x80,0x22,
0x00,0x18,0x90,0x22,0x32,0x00,0x90,0x41,0x32,0x48,0x80,0x41,0x00,0x00,0x80,0x22,
0x00,0x18,0x90,0x22,0x32,0x00,0x90,0x3e,0x32,0x48,0x80,0x22,0x00,0x00,0x80,0x3e,
0x00,0x18,0x90,0x41,0x32,0x00,0x90,0x22,0x32,0x48,0x80,0x22,0x00,0x00,0x80,0x41,
0x00,0x18,0x90,0x43,0x32,0x00,0x90,0x22,0x32,0x48,0x80,0x22,0x00,0x00,0x80,0x43,
0x00,0x18,0x90,0x22,0x32,0x00,0x90,0x44,0x32,0x48,0x80,0x22,0x00,0x00,0x80,0x44,
0x00,0x18,0x90,0x43,0x32,0x00,0x90,0x22,0x32,0x48,0x80,0x43,0x00,0x00,0x80,0x22,
0x00,0x18,0x90,0x41,0x32,0x00,0x90,0x22,0x32,0x48,0x80,0x22,0x00,0x00,0x80,0x41,
0x00,0x18,0x90,0x22,0x32,0x00,0x90,0x3e,0x32,0x48,0x80,0x3e,0x00,0x00,0x80,0x22,
0x00,0x18,0x90,0x43,0x32,0x00,0x90,0x44,0x32,0x00,0x90,0x24,0x32,0x48,0x80,0x24,
0x00,0x00,0x80,0x43,0x00,0x00,0x80,0x44,0x00,0x18,0x90,0x24,0x32,0x00,0x90,0x3e,
0x32,0x00,0x90,0x41,0x32,0x48,0x80,0x41,0x00,0x00,0x80,0x3e,0x00,0x00,0x80,0x24,
0x00,0x18,0x90,0x24,0x32,0x00,0x90,0x41,0x32,0x48,0x80,0x24,0x00,0x00,0x80,0x41,
0x00,0x18,0x90,0x24,0x32,0x48,0x80,0x24,0x00,0x18,0x90,0x24,0x32,0x00,0x90,0x43,
0x32,0x48,0x80,0x43,0x00,0x00,0x80,0x24,0x00,0x18,0x90,0x24,0x32,0x48,0x80,0x24,
0x00,0x18,0x90,0x24,0x32,0x48,0x80,0x24,0x00,0x18,0x90,0x24,0x32,0x48,0x80,0x24,
0x00,0x18,0x90,0x24,0x32,0x48,0x80,0x24,0x00,0x18,0x90,0x24,0x32,0x48,0x80,0x24,
0x00,0x18,0x90,0x24,0x32,0x48,0x80,0x24,0x00,0x18,0x90,0x24,0x32,0x48,0x80,0x24,
0x00,0x18,0x90,0x24,0x32,0x48,0x80,0x24,0x00,0x18,0x90,0x24,0x32,0x00,0x90,0x44,
0x32,0x48,0x80,0x44,0x00,0x00,0x80,0x24,0x00,0x18,0x90,0x24,0x32,0x48,0x80,0x24,
0x00,0x18,0x90,0x45,0x32,0x00,0x90,0x24,0x32,0x48,0x80,0x45,0x00,0x00,0x80,0x24,
0x00,0x18,0x90,0x26,0x32,0x00,0x90,0x48,0x32,0x48,0x80,0x48,0x00,0x00,0x80,0x26,
0x00,0x18,0x90,0x26,0x32,0x48,0x80,0x26,0x00,0x18,0x90,0x26,0x32,0x00,0x90,0x45,
0x32,0x48,0x80,0x26,0x00,0x00,0x80,0x45,0x00,0x18,0x90,0x26,0x32,0x00,0x90,0x44,
0x32,0x48,0x80,0x44,0x00,0x00,0x80,0x26,0x00,0x18,0x90,0x26,0x32,0x00,0x90,0x43,
0x32,0x48,0x80,0x26,0x00,0x00,0x80,0x43,0x00,0x18,0x90,0x26,0x32,0x00,0x90,0x41,
0x32,0x48,0x80,0x26,0x00,0x00,0x80,0x41,0x00,0x18,0x90,0x3e,0x32,0x00,0x90,0x26,
0x32,0x48,0x80,0x26,0x00,0x00,0x80,0x3e,0x00,0x18,0x90,0x26,0x32,0x00,0x90,0x40,
0x32,0x48,0x80,0x40,0x00,0x00,0x80,0x26,0x00,0x18,0x90,0x41,0x32,0x00,0x90,0x25,
0x32,0x48,0x80,0x25,0x00,0x00,0x80,0x41,0x00,0x18,0x90,0x25,0x32,0x48,0x80,0x25,
0x00,0x18,0x90,0x43,0x32,0x00,0x90,0x25,0x32,0x48,0x80,0x43,0x00,0x00,0x80,0x25,
0x00,0x18,0x90,0x25,0x32,0x48,0x80,0x25,0x00,0x18,0x90,0x45,0x32,0x00,0x90,0x25,
0x32,0x48,0x80,0x25,0x00,0x00,0x80,0x45,0x00,0x18,0x90,0x25,0x32,0x48,0x80,0x25,
0x00,0x18,0x90,0x48,0x32,0x00,0x90,0x25,0x32,0x48,0x80,0x48,0x00,0x00,0x80,0x25,
0x00,0x18,0x90,0x25,0x32,0x48,0x80,0x25,0x00,0x18,0x90,0x49,0x32,0x00,0x90,0x24,
0x32,0x48,0x80,0x24,0x00,0x00,0x80,0x49,0x00,0x18,0x90,0x24,0x32,0x48,0x80,0x24,
0x00,0x18,0x90,0x24,0x32,0x00,0x90,0x44,0x32,0x48,0x80,0x24,0x00,0x00,0x80,0x44,
0x00,0x18,0x90,0x24,0x32,0x48,0x80,0x24,0x00,0x18,0x90,0x24,0x32,0x00,0x90,0x44,
0x32,0x48,0x80,0x44,0x00,0x00,0x80,0x24,0x00,0x18,0x90,0x43,0x32,0x00,0x90,0x24,
0x32,0x48,0x80,0x43,0x00,0x00,0x80,0x24,0x00,0x18,0x90,0x24,0x32,0x00,0x90,0x41,
0x32,0x48,0x80,0x41,0x00,0x00,0x80,0x24,0x00,0x18,0x90,0x24,0x32,0x00,0x90,0x43,
0x32,0x48,0x80,0x24,0x00,0x00,0x80,0x43,0x00,0x18,0x90,0x23,0x32,0x48,0x80,0x23,
0x00,0x18,0x90,0x23,0x32,0x48,0x80,0x23,0x00,0x18,0x90,0x23,0x32,0x48,0x80,0x23,
0x00,0x18,0x90,0x23,0x32,0x48,0x80,0x23,0x00,0x18,0x90,0x23,0x32,0x48,0x80,0x23,
0x00,0x18,0x90,0x23,0x32,0x48,0x80,0x23,0x00,0x18,0x90,0x23,0x32,0x48,0x80,0x23,
0x00,0x18,0x90,0x23,0x32,0x48,0x80,0x23,0x00,0x18,0x90,0x22,0x32,0x00,0x90,0x35,
0x32,0x48,0x80,0x22,0x00,0x00,0x80,0x35,0x00,0x18,0x90,0x22,0x32,0x48,0x80,0x22,
0x00,0x18,0x90,0x37,0x32,0x00,0x90,0x22,0x32,0x48,0x80,0x22,0x00,0x00,0x80,0x37,
0x00,0x18,0x90,0x22,0x32,0x48,0x80,0x22,0x00,0x18,0x90,0x39,0x32,0x00,0x90,0x22,
0x32,0x48,0x80,0x39,0x00,0x00,0x80,0x22,0x00,0x18,0x90,0x22,0x32,0x48,0x80,0x22,
0x00,0x18,0x90,0x22,0x32,0x00,0x90,0x41,0x32,0x48,0x80,0x41,0x00,0x00,0x80,0x22,
0x00,0x18,0x90,0x22,0x32,0x48,0x80,0x22,0x00,0x18,0x90,0x40,0x32,0x00,0x90,0x22,
0x32,0x48,0x80,0x22,0x00,0x00,0x80,0x40,0x00,0x18,0x90,0x22,0x32,0x48,0x80,0x22,
0x00,0x18,0x90,0x22,0x32,0x48,0x80,0x22,0x00,0x18,0x90,0x22,0x32,0x48,0x80,0x22,
0x00,0x18,0x90,0x22,0x32,0x00,0x90,0x3e,0x32,0x48,0x80,0x22,0x00,0x00,0x80,0x3e,
0x00,0x18,0x90,0x22,0x32,0x48,0x80,0x22,0x00,0x18,0x90,0x22,0x32,0x48,0x80,0x22,
0x00,0x18,0x90,0x22,0x32,0x48,0x80,0x22,0x00,0x18,0x90,0x24,0x32,0x00,0x90,0x40,
0x32,0x48,0x80,0x24,0x00,0x00,0x80,0x40,0x00,0x18,0x90,0x24,0x32,0x48,0x80,0x24,
0x00,0x18,0x90,0x24,0x32,0x48,0x80,0x24,0x00,0x18,0x90,0x24,0x32,0x48,0x80,0x24,
0x00,0x18,0x90,0x24,0x32,0x00,0x90,0x41,0x32,0x48,0x80,0x41,0x00,0x00,0x80,0x24,
0x00,0x18,0x90,0x24,0x32,0x48,0x80,0x24,0x00,0x18,0x90,0x24,0x32,0x48,0x80,0x24,
0x00,0x18,0x90,0x24,0x32,0x48,0x80,0x24,0x00,0x18,0x90,0x24,0x32,0x00,0x90,0x43,
0x32,0x48,0x80,0x24,0x00,0x00,0x80,0x43,0x00,0x18,0x90,0x24,0x32,0x48,0x80,0x24,
0x00,0x18,0x90,0x24,0x32,0x48,0x80,0x24,0x00,0x18,0x90,0x24,0x32,0x48,0x80,0x24,
0x00,0x18,0x90,0x24,0x32,0x00,0x90,0x40,0x32,0x48,0x80,0x24,0x00,0x00,0x80,0x40,
0x00,0x18,0x90,0x24,0x32,0x48,0x80,0x24,0x00,0x18,0x90,0x24,0x32,0x48,0x80,0x24,
0x00,0x18,0x90,0x24,0x32,0x48,0x80,0x24,0x00,0x18,0x90,0x45,0x32,0x00,0x90,0x26,
0x32,0x48,0x80,0x45,0x00,0x00,0x80,0x26,0x00,0x18,0x90,0x26,0x32,0x48,0x80,0x26,
0x00,0x18,0x90,0x26,0x32,0x48,0x80,0x26,0x00,0x18,0x90,0x26,0x32,0x48,0x80,0x26,
0x00,0x18,0x90,0x26,0x32,0x48,0x80,0x26,0x00,0x18,0x90,0x26,0x32,0x48,0x80,0x26,
0x00,0x18,0x90,0x26,0x32,0x48,0x80,0x26,0x00,0x18,0x90,0x26,0x32,0x48,0x80,0x26,
0x00,0x18,0x90,0x45,0x32,0x00,0x90,0x26,0x32,0x48,0x80,0x26,0x00,0x00,0x80,0x45,
0x00,0x18,0x90,0x26,0x32,0x00,0x90,0x44,0x32,0x48,0x80,0x26,0x00,0x00,0x80,0x44,
0x00,0x18,0x90,0x43,0x32,0x00,0x90,0x26,0x32,0x48,0x80,0x26,0x00,0x00,0x80,0x43,
0x00,0x18,0x90,0x42,0x32,0x00,0x90,0x26,0x32,0x48,0x80,0x26,0x00,0x00,0x80,0x42,
0x00,0x18,0x90,0x41,0x32,0x00,0x90,0x26,0x32,0x48,0x80,0x26,0x00,0x00,0x80,0x41,
0x00,0x18,0x90,0x40,0x32,0x00,0x90,0x26,0x32,0x48,0x80,0x26,0x00,0x00,0x80,0x40,
0x00,0x18,0x90,0x26,0x32,0x00,0x90,0x3f,0x32,0x48,0x80,0x26,0x00,0x00,0x80,0x3f,
0x00,0x18,0x90,0x3e,0x32,0x00,0x90,0x26,0x32,0x48,0x80,0x26,0x00,0x00,0x80,0x3e,
0x00,0x18,0x90,0x3d,0x32,0x00,0x90,0x25,0x32,0x48,0x80,0x25,0x00,0x00,0x80,0x3d,
0x00,0x18,0x90,0x25,0x32,0x48,0x80,0x25,0x00,0x18,0x90,0x25,0x32,0x48,0x80,0x25,
0x00,0x18,0x90,0x25,0x32,0x48,0x80,0x25,0x00,0x18,0x90,0x25,0x32,0x48,0x80,0x25,
0x00,0x18,0x90,0x25,0x32,0x48,0x80,0x25,0x00,0x18,0x90,0x25,0x32,0x48,0x80,0x25,
0x00,0x18,0x90,0x25,0x32,0x48,0x80,0x25,0x00,0x18,0x90,0x27,0x32,0x00,0x90,0x3f,
0x32,0x48,0x80,0x3f,0x00,0x00,0x80,0x27,0x00,0x18,0x90,0x27,0x32,0x48,0x80,0x27,
0x00,0x18,0x90,0x27,0x32,0x48,0x80,0x27,0x00,0x18,0x90,0x27,0x32,0x48,0x80,0x27,
0x00,0x18,0x90,0x27,0x32,0x48,0x80,0x27,0x00,0x18,0x90,0x27,0x32,0x48,0x80,0x27,
0x00,0x18,0x90,0x27,0x32,0x48,0x80,0x27,0x00,0x18,0x90,0x27,0x32,0x48,0x80,0x27,
0x00,0x00,0xff,0x2f,0x00,
};
