#include <stdint.h>
const uint8_t midifile2[] = {
0x4d,0x54,0x68,0x64,0x00,0x00,0x00,0x06,0x00,0x01,0x00,0x02,0x01,0x80,0x4d,0x54,
0x72,0x6b,0x00,0x00,0x00,0x13,0x00,0xff,0x58,0x04,0x04,0x02,0x18,0x08,0x00,0xff,
0x51,0x03,0x06,0x1a,0x80,0x00,0xff,0x2f,0x00,0x4d,0x54,0x72,0x6b,0x00,0x00,0x04,
0x29,0x00,0xff,0x03,0x05,0x46,0x6c,0x75,0x74,0x65,0x00,0xc0,0x49,0x00,0x90,0x51,
0x32,0x00,0x90,0x45,0x32,0x81,0x40,0x80,0x45,0x00,0x00,0x80,0x51,0x00,0x00,0x90,
0x45,0x32,0x00,0x90,0x51,0x32,0x81,0x40,0x80,0x51,0x00,0x00,0x80,0x45,0x00,0x00,
0x90,0x2b,0x32,0x00,0x90,0x1f,0x32,0x81,0x40,0x80,0x1f,0x00,0x00,0x80,0x2b,0x00,
0x00,0x90,0x4f,0x32,0x00,0x90,0x43,0x32,0x00,0x90,0x1a,0x32,0x00,0x90,0x26,0x32,
0x81,0x40,0x80,0x43,0x00,0x00,0x80,0x26,0x00,0x00,0x80,0x1a,0x00,0x00,0x80,0x4f,
0x00,0x00,0x90,0x43,0x32,0x00,0x90,0x4f,0x32,0x81,0x40,0x80,0x4f,0x00,0x00,0x80,
0x43,0x00,0x81,0x40,0x90,0x26,0x32,0x00,0x90,0x42,0x32,0x00,0x90,0x1a,0x32,0x00,
0x90,0x4e,0x32,0x81,0x40,0x80,0x42,0x00,0x00,0x80,0x4e,0x00,0x00,0x80,0x26,0x00,
0x00,0x80,0x1a,0x00,0x00,0x90,0x42,0x32,0x00,0x90,0x4e,0x32,0x00,0x90,0x2b,0x32,
0x00,0x90,0x1f,0x32,0x81,0x40,0x80,0x1f,0x00,0x00,0x80,0x4e,0x00,0x00,0x80,0x42,
0x00,0x00,0x80,0x2b,0x00,0x81,0x40,0x90,0x4c,0x32,0x00,0x90,0x40,0x32,0x81,0x40,
0x80,0x40,0x00,0x00,0x80,0x4c,0x00,0x00,0x90,0x4c,0x32,0x00,0x90,0x2b,0x32,0x00,
0x90,0x40,0x32,0x00,0x90,0x1f,0x32,0x81,0x40,0x80,0x4c,0x00,0x00,0x80,0x1f,0x00,
0x00,0x80,0x40,0x00,0x00,0x80,0x2b,0x00,0x00,0x90,0x1a,0x32,0x00,0x90,0x26,0x32,
0x81,0x40,0x80,0x26,0x00,0x00,0x80,0x1a,0x00,0x83,0x00,0x90,0x26,0x32,0x00,0x90,
0x1a,0x32,0x81,0x40,0x80,0x1a,0x00,0x00,0x80,0x26,0x00,0x00,0x90,0x1f,0x32,0x00,
0x90,0x2b,0x32,0x81,0x40,0x80,0x1f,0x00,0x00,0x80,0x2b,0x00,0x00,0x90,0x45,0x32,
0x00,0x90,0x51,0x32,0x81,0x40,0x80,0x51,0x00,0x00,0x80,0x45,0x00,0x00,0x90,0x45,
0x32,0x00,0x90,0x51,0x32,0x81,0x40,0x80,0x51,0x00,0x00,0x80,0x45,0x00,0x00,0x90,
0x2b,0x32,0x00,0x90,0x1f,0x32,0x81,0x40,0x80,0x1f,0x00,0x00,0x80,0x2b,0x00,0x00,
0x90,0x43,0x32,0x00,0x90,0x4f,0x32,0x00,0x90,0x26,0x32,0x00,0x90,0x1a,0x32,0x81,
0x40,0x80,0x1a,0x00,0x00,0x80,0x26,0x00,0x00,0x80,0x43,0x00,0x00,0x80,0x4f,0x00,
0x00,0x90,0x43,0x32,0x00,0x90,0x4f,0x32,0x81,0x40,0x80,0x4f,0x00,0x00,0x80,0x43,
0x00,0x81,0x40,0x90,0x4e,0x32,0x00,0x90,0x1a,0x32,0x00,0x90,0x42,0x32,0x00,0x90,
0x26,0x32,0x81,0x40,0x80,0x1a,0x00,0x00,0x80,0x4e,0x00,0x00,0x80,0x42,0x00,0x00,
0x80,0x26,0x00,0x00,0x90,0x42,0x32,0x00,0x90,0x2b,0x32,0x00,0x90,0x1f,0x32,0x00,
0x90,0x4e,0x32,0x81,0x40,0x80,0x42,0x00,0x00,0x80,0x4e,0x00,0x00,0x80,0x2b,0x00,
0x00,0x80,0x1f,0x00,0x81,0x40,0x90,0x40,0x32,0x00,0x90,0x4c,0x32,0x81,0x40,0x80,
0x4c,0x00,0x00,0x80,0x40,0x00,0x00,0x90,0x40,0x32,0x00,0x90,0x4c,0x32,0x00,0x90,
0x1f,0x32,0x00,0x90,0x2b,0x32,0x81,0x40,0x80,0x2b,0x00,0x00,0x80,0x1f,0x00,0x00,
0x80,0x40,0x00,0x00,0x80,0x4c,0x00,0x00,0x90,0x1a,0x32,0x00,0x90,0x26,0x32,0x81,
0x40,0x80,0x26,0x00,0x00,0x80,0x1a,0x00,0x83,0x00,0x90,0x2b,0x32,0x00,0x90,0x1f,
0x32,0x81,0x40,0x80,0x1f,0x00,0x00,0x80,0x2b,0x00,0x00,0x90,0x24,0x32,0x00,0x90,
0x30,0x32,0x81,0x40,0x80,0x24,0x00,0x00,0x80,0x30,0x00,0x00,0x90,0x4a,0x32,0x00,
0x90,0x56,0x32,0x81,0x40,0x80,0x56,0x00,0x00,0x80,0x4a,0x00,0x00,0x90,0x56,0x32,
0x00,0x90,0x4a,0x32,0x81,0x40,0x80,0x4a,0x00,0x00,0x80,0x56,0x00,0x00,0x90,0x30,
0x32,0x00,0x90,0x24,0x32,0x81,0x40,0x80,0x24,0x00,0x00,0x80,0x30,0x00,0x00,0x90,
0x1f,0x32,0x00,0x90,0x54,0x32,0x00,0x90,0x2b,0x32,0x00,0x90,0x48,0x32,0x81,0x40,
0x80,0x48,0x00,0x00,0x80,0x2b,0x00,0x00,0x80,0x1f,0x00,0x00,0x80,0x54,0x00,0x00,
0x90,0x54,0x32,0x00,0x90,0x48,0x32,0x81,0x40,0x80,0x48,0x00,0x00,0x80,0x54,0x00,
0x81,0x40,0x90,0x2b,0x32,0x00,0x90,0x1f,0x32,0x00,0x90,0x53,0x32,0x00,0x90,0x47,
0x32,0x81,0x40,0x80,0x1f,0x00,0x00,0x80,0x53,0x00,0x00,0x80,0x2b,0x00,0x00,0x80,
0x47,0x00,0x00,0x90,0x30,0x32,0x00,0x90,0x53,0x32,0x00,0x90,0x47,0x32,0x00,0x90,
0x24,0x32,0x81,0x40,0x80,0x24,0x00,0x00,0x80,0x47,0x00,0x00,0x80,0x53,0x00,0x00,
0x80,0x30,0x00,0x81,0x40,0x90,0x45,0x32,0x00,0x90,0x51,0x32,0x81,0x40,0x80,0x51,
0x00,0x00,0x80,0x45,0x00,0x00,0x90,0x24,0x32,0x00,0x90,0x51,0x32,0x00,0x90,0x45,
0x32,0x00,0x90,0x30,0x32,0x81,0x40,0x80,0x30,0x00,0x00,0x80,0x45,0x00,0x00,0x80,
0x51,0x00,0x00,0x80,0x24,0x00,0x00,0x90,0x2b,0x32,0x00,0x90,0x1f,0x32,0x81,0x40,
0x80,0x1f,0x00,0x00,0x80,0x2b,0x00,0x83,0x00,0x90,0x2b,0x32,0x00,0x90,0x1f,0x32,
0x81,0x40,0x80,0x2b,0x00,0x00,0x80,0x1f,0x00,0x00,0x90,0x24,0x32,0x00,0x90,0x30,
0x32,0x81,0x40,0x80,0x30,0x00,0x00,0x80,0x24,0x00,0x00,0x90,0x4a,0x32,0x00,0x90,
0x56,0x32,0x81,0x40,0x80,0x56,0x00,0x00,0x80,0x4a,0x00,0x00,0x90,0x4a,0x32,0x00,
0x90,0x56,0x32,0x81,0x40,0x80,0x56,0x00,0x00,0x80,0x4a,0x00,0x00,0x90,0x30,0x32,
0x00,0x90,0x24,0x32,0x81,0x40,0x80,0x24,0x00,0x00,0x80,0x30,0x00,0x00,0x90,0x2b,
0x32,0x00,0x90,0x48,0x32,0x00,0x90,0x54,0x32,0x00,0x90,0x1f,0x32,0x81,0x40,0x80,
0x2b,0x00,0x00,0x80,0x1f,0x00,0x00,0x80,0x54,0x00,0x00,0x80,0x48,0x00,0x00,0x90,
0x54,0x32,0x00,0x90,0x48,0x32,0x81,0x40,0x80,0x48,0x00,0x00,0x80,0x54,0x00,0x81,
0x40,0x90,0x28,0x32,0x00,0x90,0x46,0x32,0x00,0x90,0x52,0x32,0x00,0x90,0x1c,0x32,
0x81,0x40,0x80,0x1c,0x00,0x00,0x80,0x28,0x00,0x00,0x80,0x52,0x00,0x00,0x80,0x46,
0x00,0x00,0x90,0x52,0x32,0x00,0x90,0x29,0x32,0x00,0x90,0x1d,0x32,0x00,0x90,0x46,
0x32,0x81,0x40,0x80,0x46,0x00,0x00,0x80,0x1d,0x00,0x00,0x80,0x29,0x00,0x00,0x80,
0x52,0x00,0x81,0x40,0x90,0x45,0x32,0x00,0x90,0x51,0x32,0x81,0x40,0x80,0x51,0x00,
0x00,0x80,0x45,0x00,0x00,0x90,0x1d,0x32,0x00,0x90,0x51,0x32,0x00,0x90,0x29,0x32,
0x00,0x90,0x45,0x32,0x81,0x40,0x80,0x45,0x00,0x00,0x80,0x29,0x00,0x00,0x80,0x51,
0x00,0x00,0x80,0x1d,0x00,0x00,0x90,0x24,0x32,0x00,0x90,0x18,0x32,0x81,0x40,0x80,
0x18,0x00,0x00,0x80,0x24,0x00,0x00,0xff,0x2f,0x00,
};
